<svg width="856" height="1022" viewBox="57 56 900 1080" fill="none" xmlns="http://www.w3.org/2000/svg">
<g filter="url(#filter0_d_0_3)">
<path d="M56 1136C117.123 1110.54 177.769 1087.18 216.724 1043.94C255.678 1000.7 272.461 939.689 309.382 894.823C346.305 849.955 403.364 821.239 430.353 768.407C457.341 715.574 454.256 638.624 491.722 594.192C529.187 549.761 607.198 537.849 645.471 494.067C683.746 450.283 682.282 374.633 718.761 329.412C755.24 284.191 829.662 269.4 871.022 228.09C912.38 186.782 920.673 118.957 950.27 68.2173C955.646 59 959.5 56 959.5 56L959.5 1136L56 1136Z" fill="white"/>
</g>
<defs>
<filter id="filter0_d_0_3" x="0" y="0" width="1003.5" height="1180" filterUnits="userSpaceOnUse" color-interpolation-filters="sRGB">
<feFlood flood-opacity="0" result="BackgroundImageFix"/>
<feColorMatrix in="SourceAlpha" type="matrix" values="0 0 0 0 0 0 0 0 0 0 0 0 0 0 0 0 0 0 127 0" result="hardAlpha"/>
<feOffset dx="-6" dy="-6"/>
<feGaussianBlur stdDeviation="25"/>
<feComposite in2="hardAlpha" operator="out"/>
<feColorMatrix type="matrix" values="0 0 0 0 0 0 0 0 0 0 0 0 0 0 0 0 0 0 0.25 0"/>
<feBlend mode="normal" in2="BackgroundImageFix" result="effect1_dropShadow_0_3"/>
<feBlend mode="normal" in="SourceGraphic" in2="effect1_dropShadow_0_3" result="shape"/>
</filter>
</defs>
</svg>
