<svg width="822" height="705" viewBox="0 0 822 705" fill="none" xmlns="http://www.w3.org/2000/svg">
<g clip-path="url(#clip0_175_4)">
<path fill-rule="evenodd" clip-rule="evenodd" d="M237.791 201.889C237.791 201.889 237.677 201.907 237.602 201.927C237.411 202.004 237.198 202.048 237.029 202.159C237.278 202.053 237.519 201.962 237.782 201.905L237.791 201.889ZM674.094 642.406C676.6 646.653 676.864 652.718 673.05 656.282C671.178 657.604 669.931 659.183 669.536 661.461C668.655 664.003 666.805 665.902 664.835 667.647C663.859 669.048 663.006 670.561 661.621 671.621C655.483 675.765 647.162 674.596 641.287 670.494C628.183 662.427 617.583 651.001 605.493 641.576C604.083 640.177 601.856 638.599 599.529 636.942C602.736 643.996 606.52 650.777 610.592 657.348C613.399 662.416 616.147 667.512 619.823 672.016C623.826 677.692 631.694 682.255 630.749 690.087C630.482 693.088 627.292 696.511 623.956 697.614C622.83 701.811 615.917 706.428 612.215 706.463C608.528 709.516 603.949 709.547 600.212 706.49C588.471 697.33 581.564 683.711 572.19 672.407C566.652 665.512 562.328 657.458 555.245 651.969C539.702 639.757 519.768 635.727 503.58 624.668C481.135 610.894 460.802 593.932 442.117 575.456C439.148 572.446 435.806 569.827 432.602 567.079C398.708 559.691 364.421 554.144 330.497 546.843C309.366 543.439 288.909 537.164 268.495 530.852C257.116 527.479 245.343 525.403 234.36 520.838C227.922 518.145 222.181 516.168 216.365 512.726C208.384 509.518 200.429 506.158 193.005 501.767C191.451 500.619 189.531 499.886 187.924 498.792C187.443 498.828 186.956 498.839 186.443 498.856C182.638 499.396 178.671 499.383 175.097 500.934C169.284 503.574 163.264 505.885 156.889 506.78C138.881 508.982 120.62 513.941 102.465 510.709C93.9147 508.488 83.9552 506.353 77.528 499.947C76.6135 498.813 75.9241 497.579 75.4217 496.203C75.1548 495.505 74.9465 494.779 74.7043 494.075C70.1291 492.687 69.2336 490.144 67.6676 487.276C66.6726 487.224 65.7107 486.752 65.0183 485.704C59.7587 477.131 68.0833 466.373 77.3935 466.19C83.5394 465.184 89.7201 465.64 95.8885 465.754C102.038 465.648 108.082 464.165 114.001 462.61C119.668 461.202 124.939 458.667 130.334 456.496C132.008 455.77 133.683 455.045 135.35 454.294C131.401 450.155 128.09 445.381 125.011 440.532C122.8 436.498 119.496 431.749 118.003 426.98C114.111 429.517 109.938 431.6 105.631 433.333C93.7617 438.891 81.1422 442.594 68.0222 443.251C59.4121 444.213 50.6581 444.048 42.1504 442.333C35.9146 441.031 28.911 440.769 23.7262 436.668C22.4588 435.602 21.534 434.232 20.6925 432.827C17.607 431.359 14.1776 429.943 12.4016 426.787C9.99834 420.26 3.62743 421.366 6.36053 413.48C11.7428 401.983 26.7646 403.866 37.2866 401.73C43.1966 400.734 48.976 399.203 54.6891 397.424C69.2209 394.177 80.8444 384.299 92.5479 375.805C96.7508 372.402 99.4672 367.118 104.063 364.339C104.322 364.071 104.559 363.769 104.787 363.483C104.331 352.46 104.527 341.396 104.597 330.404C104.903 317.482 105.586 304.484 109.29 292.019C112.232 280.074 115.973 268.341 119.871 256.698C123.474 245.637 129.035 235.643 129.166 223.893C129.24 215.684 119.577 211.15 114.675 205.582C109.955 200.747 103.929 195.931 101.906 189.289C99.8724 185.817 95.4274 182.102 96.6843 177.75C96.741 177.616 96.8044 177.506 96.8767 177.381C96.3302 175.791 95.9074 174.168 95.6668 172.483C95.433 171.366 95.0639 169.795 94.821 168.15C93.5448 163.548 92.6958 158.859 92.9165 154.056C93.4845 145.463 95.8711 137.125 98.3561 128.908C100.57 122.79 101.093 115.905 104.144 110.187C105.691 104.499 104.819 98.6891 105.9 92.9407C106.793 89.1107 105.452 84.9103 106.808 81.2219C106.871 81.1122 106.935 81.0025 107.014 80.9019C106.696 79.4231 106.245 77.993 105.547 76.6291C103.94 69.2664 101.433 62.3033 99.2393 55.124C95.9622 45.6897 98.055 33.1508 110.751 35.8009C117.729 37.5939 123.971 41.2398 130.107 45.0332C130.373 44.9358 130.661 44.8721 130.971 44.8423C146.473 47.9219 157.824 60.2209 166.483 72.7624C176.974 88.0744 185.939 108.021 178.819 126.224C180.078 128.935 177.084 132.598 176.012 135.217C171.482 143.027 166.676 150.698 161.187 157.85C156.104 163.356 152.647 170.323 152.045 177.852C151.936 180.902 152.756 183.903 154.087 186.635C155.212 189.542 158.222 191.865 158.408 195.022C158.824 195.388 159.259 195.722 159.692 195.951C166.642 201.74 176.095 200.115 184.364 199.019C189.934 198.286 195.547 197.515 200.893 195.754C203.149 195.072 205.252 193.424 207.704 193.669C210.459 194.007 211.874 197.498 210.132 199.647C219.66 198.943 229.207 199.148 238.457 201.751C238.603 201.752 238.733 201.744 238.87 201.76C240.367 201.016 241.843 200.343 242.909 199.621C246.686 197.644 250.553 195.802 254.439 194.035C266.234 188.643 278.718 185.175 291.537 183.3C302.456 180.766 311.1 182.644 320.847 186.851C334.743 191.155 346.855 199.673 359.893 209.122C368.576 215.932 378.126 221.822 388.32 226.015C392.32 227.385 396.546 227.965 400.503 229.518C420.435 239.166 385.852 258.373 376.595 262.013C368.648 265.197 359.971 266.204 351.46 266.451C335.876 266.918 320.43 263.85 306.271 257.284C297.982 253.124 290.409 247.687 282.48 242.942C277.929 239.917 273.12 237.266 267.965 235.397C266.282 234.906 264.01 234.347 262.575 233.246C259.276 232.763 255.897 232.818 252.527 233.546C256.197 241.974 260.138 250.476 265.697 257.843C270.005 262.482 275.465 265.927 281.009 268.898C286.771 271.744 292.545 274.535 298.421 277.112C304.38 279.8 313.28 281.596 314.921 288.937C315.164 291.124 314.153 294.615 312.459 297.042C312.681 301.223 310.762 306.613 309.825 310.083C306.72 319.447 300.302 328.57 290.601 331.785C286.187 333.27 281.636 331.332 277.315 330.989C271.157 333.973 264.585 335.464 257.711 334.942C258.808 336.955 261.429 337.779 262.327 339.739C265.293 342.245 268.459 344.553 271.496 346.975C278.99 352.765 286.503 358.523 294.564 363.511C297.181 365.211 299.865 366.76 302.645 368.177C303.191 368.137 303.77 368.221 304.322 368.497C309.161 370.769 314.145 372.644 319.173 374.481C329.699 378.281 340.559 380.957 351.491 383.257C378.329 390.437 405.712 395.153 433.136 399.433C444.341 401.368 455.488 403.73 466.785 405.071C467.271 404.809 467.847 404.681 468.454 404.718C472.718 405.049 476.95 405.8 481.235 406.206C494.124 407.651 507.116 408.195 519.91 410.421C538.508 414.264 559.646 418.09 572.332 433.332C574.449 433.071 576.678 432.979 578.188 432.284C582.655 430.998 587.099 429.532 591.413 427.823C604.953 422.415 616.544 412.811 626.169 402.01C626.983 400.891 627.764 399.755 628.515 398.6C629.874 396.753 631.18 394.853 632.351 392.897C633.054 391.715 633.785 390.486 634.259 389.193C634.636 388.178 635.044 387.181 635.437 386.175C636.322 383.991 637.184 381.773 638.037 379.57C639.719 375.172 641.322 370.728 642.301 366.133C642.821 363.675 643.293 361.19 643.588 358.686C643.73 357.535 643.871 356.384 643.932 355.228C643.961 354.598 643.991 353.967 643.989 353.318C644.001 352.427 643.955 351.565 643.785 350.735C643.818 349.918 643.81 349.099 643.801 348.279C643.796 346.187 643.62 344.101 643.468 342.007C643.313 339.849 643.108 337.704 642.887 335.55C642.774 334.441 642.621 333.329 642.484 332.226C642.275 330.559 642.065 328.64 641.244 327.164C640.708 326.207 639.977 325.408 639.085 324.852C637.758 320.012 635.97 315.281 634.071 310.634C632.971 308.118 631.979 305.561 630.762 303.103C629.62 301.712 629.572 299.658 630.83 298.274C633.371 295.939 635.478 297.218 636.966 299.351C639.04 300.361 640.4 303.549 641.75 305.415C645.17 310.398 648.388 315.514 651.387 320.756C657.278 332.076 658.272 345.247 658.686 357.792C659.454 381.573 650.248 405.925 631.487 421.063C624.644 426.43 617.795 432.024 609.574 435.175C606.588 435.999 601.162 439.636 597.458 439.419C594.226 440.959 590.878 442.264 587.332 443.079C585.792 443.319 583.748 443.997 581.647 444.519C582.231 445.211 582.783 445.885 583.28 446.402C590.385 455.33 593.468 466.804 596.056 477.721C597.832 485.661 600.626 493.396 601.621 501.492C602.86 513.26 604.774 525.019 607.481 536.527C611.706 555.409 615.067 565.059 630.083 577.823C633.375 580.999 635.05 585.308 636.652 589.492C639.619 597.18 642.738 604.894 647.547 611.64C651.226 616.501 655.27 621.092 659.282 625.665C664.314 631.119 670.413 635.81 674.087 642.382L674.094 642.406Z" fill="#8C6A60"/>
<path fill-rule="evenodd" clip-rule="evenodd" d="M402.89 242.993C402.394 244.65 400.423 246.541 398.76 248.046C396.364 250.528 393.669 252.733 390.699 254.507C388.857 255.595 386.957 256.567 385.013 257.471C360.099 270.728 328.63 271.822 303.832 257.63C290.294 250.315 278.453 239.154 263.538 234.513C259.357 232.37 253.704 234.225 250.221 230.982C245.828 226.126 242.91 220.054 237.942 215.723C236.405 213.603 231.29 212.823 232.718 209.553C233.158 208.971 233.762 208.505 234.469 208.078C233.981 208.234 233.534 208.394 233.21 208.52C230.15 209.073 225.552 211.746 223.146 208.811C222.082 205.146 227.52 205.402 229.67 204.178C232.202 203.489 234.038 201.143 236.536 200.621C237.919 200.689 239.01 202.279 238.205 203.528C239.11 204.677 238.871 205.563 238.132 206.264C239.748 205.421 241.097 204.425 241.185 202.678C241.117 201.782 241.76 200.921 242.378 200.359C247.489 196.29 253.845 194.193 259.771 191.576C269.114 188.112 278.621 184.617 288.556 183.354C290.431 182.389 293.94 179.318 295.516 182.024C296.361 184.873 292.207 184.856 290.708 186.331C264.683 205.715 295.54 236.191 315.824 245.374C335.356 255.209 364.364 257.834 385.511 251.136C393.271 247.551 399.848 242.03 401.249 232.936C399.782 230.585 403.489 228.839 404.616 231.308C404.647 231.472 404.687 231.62 404.702 231.775C405.567 231.835 406.4 232.421 406.483 233.618C406.205 236.926 404.755 240.163 402.909 242.962L402.89 242.993ZM580.026 442.58C579.959 442.478 579.868 442.384 579.791 442.298C578.884 441.189 577.908 440.124 576.915 439.091C575.484 437.91 574.134 436.733 573.372 435.625C572.555 434.902 571.729 434.196 570.86 433.527C569.386 432.383 567.799 431.363 566.158 430.436C566.279 430.046 566.53 429.648 566.967 429.253C568.662 428.31 569.629 430.476 570.65 431.317C571.396 432.019 572.107 432.743 572.81 433.483C572.983 432.893 573.495 432.332 574.458 431.823C575.231 431.935 576.008 431.965 576.801 432.005C578.42 432.063 580.038 432.015 581.658 431.927C584.727 431.756 587.89 431.242 590.763 430.143C592.997 429.281 595.142 428.283 597.254 427.163C599.316 426.055 601.311 424.846 603.306 423.637C606.026 421.969 608.492 419.945 610.689 417.662C611.754 417.086 612.837 416.479 613.879 415.869C614.683 415.455 615.647 414.654 616.576 414.313C616.707 413.072 618.378 412.136 619.952 412.815C630.341 412.649 637.685 403.08 643.733 395.686C651.001 386.177 654.838 374.457 656.42 362.731C656.616 360.253 656.698 357.793 656.642 355.317C657.104 352.742 654.545 345.686 658.85 346.166C660.782 346.697 660.07 350.902 660.141 353.388C660.488 353.693 660.704 354.152 660.675 354.782C660.586 357.907 660.334 361.062 659.913 364.183C657.442 389.624 643.061 415.982 620.532 427.899C610.769 434.192 600.403 439.573 588.98 442.109C586.345 442.76 583.334 444.678 580.866 442.647C580.204 441.909 579.371 441.178 578.482 440.435C579.03 441.19 579.568 441.96 580.091 442.722C580.059 442.703 580.046 442.654 580.015 442.636L580.026 442.58ZM591.251 464.229C590.953 464.057 590.644 463.94 590.334 463.824C589.481 461.243 588.638 458.646 587.603 456.126C586.86 454.297 586.058 452.497 585.173 450.733C585.305 450.976 585.461 451.212 585.592 451.455C588.261 455.712 590.499 460.242 592.286 464.972C591.971 464.686 591.628 464.446 591.236 464.22L591.251 464.229ZM108.521 502.756C108.31 502.216 108.445 501.584 108.772 501.125C108.863 500.968 109.007 500.864 109.007 500.864C113.486 500.462 118.147 500.144 122.848 499.683C123.19 499.671 123.522 499.675 123.864 499.663C131.803 499.463 139.637 497.781 147.312 495.756C148.203 495.518 149.093 495.28 149.984 495.042C150.033 495.029 150.083 495.016 150.157 494.996C150.379 494.936 150.602 494.877 150.825 494.817C151.319 494.685 151.799 494.544 152.293 494.412C152.574 494.323 152.862 494.26 153.143 494.171C153.35 494.103 153.564 494.059 153.771 493.99C153.796 493.984 153.82 493.977 153.845 493.971C153.854 493.955 153.895 493.957 153.919 493.951C154.117 493.898 154.324 493.829 154.522 493.776C154.704 493.714 154.877 493.668 155.075 493.615C155.199 493.582 155.332 493.534 155.455 493.5C155.53 493.481 155.604 493.461 155.678 493.441C155.802 493.408 155.91 493.366 156.033 493.333C156.157 493.3 156.265 493.258 156.389 493.225C156.512 493.191 156.62 493.149 156.744 493.116C156.818 493.096 156.902 493.061 156.976 493.041C157.133 492.986 157.306 492.94 157.455 492.9C157.554 492.873 157.637 492.838 157.736 492.811C157.786 492.798 157.844 492.769 157.909 492.765C157.959 492.752 158.017 492.723 158.082 492.719C158.157 492.699 158.206 492.686 158.265 492.657C158.289 492.65 158.314 492.644 158.339 492.637C158.388 492.624 158.438 492.611 158.496 492.582C158.753 492.5 159.009 492.418 159.25 492.327C159.383 492.279 159.506 492.246 159.639 492.197C159.763 492.164 159.895 492.115 160.019 492.082C160.044 492.076 160.093 492.062 160.118 492.056C160.143 492.049 160.168 492.042 160.201 492.02C160.35 491.981 160.491 491.916 160.624 491.867C160.624 491.867 160.624 491.867 160.649 491.861C160.683 491.839 160.723 491.841 160.757 491.819C160.89 491.77 161.013 491.737 161.13 491.679C161.254 491.646 161.371 491.588 161.504 491.54C161.538 491.517 161.578 491.52 161.612 491.497C161.695 491.462 161.778 491.426 161.868 491.416C161.918 491.402 161.967 491.389 162.026 491.36C162.084 491.331 162.134 491.318 162.208 491.298C162.282 491.279 162.341 491.25 162.415 491.23C162.523 491.188 162.647 491.155 162.755 491.113C162.838 491.077 162.937 491.051 163.045 491.009C163.286 490.918 163.502 490.834 163.742 490.743C163.767 490.736 163.801 490.714 163.826 490.707C164.091 490.61 164.341 490.503 164.606 490.406C164.856 490.299 165.121 490.202 165.371 490.095C165.621 489.989 165.886 489.891 166.136 489.785C166.386 489.678 166.651 489.581 166.901 489.474C167.151 489.368 167.426 489.255 167.684 489.133C167.934 489.026 168.193 488.904 168.458 488.807C168.458 488.807 168.467 488.791 168.492 488.784C170.025 488.123 171.535 487.428 173.038 486.708C173.79 486.348 174.551 485.973 175.296 485.588C175.681 485.392 176.09 485.19 176.475 484.995C176.509 484.972 176.559 484.959 176.601 484.921C176.635 484.899 176.694 484.87 176.727 484.848C176.786 484.819 176.854 484.774 176.928 484.754C177.07 484.69 177.22 484.61 177.362 484.545C177.864 484.292 178.391 484.032 178.893 483.779C179.512 483.467 180.131 483.156 180.734 482.836C180.793 482.807 180.86 482.763 180.919 482.734C180.968 482.721 181.011 482.683 181.045 482.66C181.522 482.413 181.999 482.167 182.476 481.92C182.945 481.689 183.406 481.433 183.874 481.202C183.892 481.17 183.933 481.173 183.967 481.151C184.419 480.91 184.896 480.664 185.349 480.423C185.826 480.177 186.297 479.905 186.774 479.658C187.469 479.287 188.149 478.906 188.845 478.535C188.879 478.513 188.912 478.491 188.937 478.484C189.423 478.221 189.91 477.959 190.396 477.697C190.488 477.645 190.572 477.61 190.664 477.559C190.99 477.392 191.301 477.216 191.627 477.049C191.837 476.94 192.021 476.838 192.231 476.729C192.8 476.431 193.361 476.149 193.921 475.867C194.14 475.742 194.365 475.642 194.59 475.542C194.824 475.427 195.033 475.318 195.258 475.218C195.483 475.118 195.702 474.993 195.927 474.893C196.152 474.794 196.386 474.678 196.611 474.578C196.836 474.478 197.07 474.363 197.295 474.263C197.52 474.163 197.745 474.063 197.986 473.972C198.343 473.824 198.692 473.691 199.05 473.542C199.05 473.542 199.05 473.542 199.059 473.526C199.408 473.393 199.741 473.251 200.089 473.118C200.089 473.118 200.114 473.112 200.139 473.105C200.355 473.021 200.546 472.943 200.762 472.859C201.558 472.713 202.361 472.591 203.17 472.494C203.415 472.468 203.644 472.434 203.889 472.408C206.062 472.304 208.23 472.282 210.402 472.324C212.771 472.459 215.152 472.685 217.516 473.047C219.283 473.356 221.02 473.754 222.728 474.238C223.987 474.631 225.209 475.086 226.42 475.597C230.639 477.531 234.671 479.859 238.733 482.1C243.66 484.798 248.558 487.584 253.513 490.236C258.38 492.858 263.412 495.157 268.531 497.235C273.903 499.417 279.293 501.568 284.73 503.6C290.112 505.621 295.625 507.342 301.086 509.116C307.009 511.031 312.915 512.978 319.03 514.127C321.822 514.653 324.647 515.051 327.456 515.44C330.346 515.834 333.236 516.082 336.138 516.274C341.91 516.64 347.672 517.167 353.452 517.412C358.988 517.642 364.535 517.71 370.072 517.94C375.665 518.181 381.227 518.656 386.803 519.18C392.243 519.688 397.7 520.165 403.113 520.825C404.312 520.995 405.511 521.165 406.692 521.366C409.232 522.185 411.788 523.013 414.31 523.863C418.741 525.355 423.151 526.92 427.476 528.706C430.064 529.804 432.641 530.957 435.145 532.236C437.618 533.497 440.071 534.829 442.508 536.152C444.96 537.485 447.413 538.817 449.965 539.977C451.963 540.901 454.042 541.684 456.133 542.41C459.041 543.86 462.031 545.168 465.14 546.232C502.86 560.655 555.666 559.637 583.181 526.509C585.146 523.757 586.836 520.868 588.225 517.846C589.316 516.136 590.242 514.352 591.136 512.549C592.126 510.509 593.053 508.433 593.805 506.297C594.118 505.391 594.432 504.486 594.729 503.572C594.739 503.556 594.757 503.525 594.766 503.509C594.863 503.231 594.961 502.953 595.018 502.673C595.952 499.535 596.636 496.357 596.92 493.074C597.123 490.621 597.177 488.208 596.877 485.757C596.639 483.74 596.353 481.736 596.082 479.741C595.879 478.245 595.651 476.755 595.432 475.25C596.152 478.424 596.683 481.634 597.001 484.889C599.366 490.976 601.555 497.149 602.738 503.578C604.925 513.741 604.366 524.24 606.546 534.378C608.28 542.462 611.63 550.141 614.705 557.788C615.715 560.711 618.473 563.327 618.308 566.512C618.287 566.584 618.267 566.655 618.246 566.727C619.165 566.839 620.069 567.048 620.949 567.41C623.326 568.908 620.903 571.583 619.413 570.722C606.406 567.705 599.679 582.436 597.482 592.909C596.02 602.072 598.74 611.311 603.108 619.327C608.685 630.612 616.992 640.067 626.168 648.561C630.145 652.361 633.912 656.417 638.149 659.949C639.793 661.776 644.86 663.218 642.894 666.261C640.587 668.084 635.531 664.956 631.784 662.605C630.477 661.788 629.336 661.045 628.516 660.655C617.518 653.324 608.091 644.141 598.863 634.76C595.939 632.07 592.865 630.148 589.722 627.874C588.751 627.418 587.786 626.986 586.813 626.571C593.388 630.074 599.104 635.067 601.489 642.46C603.614 647.511 606.843 652.029 608.719 657.186C614.171 669.484 608.68 674.212 596.138 673.614C589.029 673.208 581.224 675.241 574.748 671.564C564.083 660.142 553.485 647.735 539.722 639.83C532.616 635.832 524.749 633.442 517.58 629.554C494.574 618.235 473.289 603.502 454.328 586.266C446.085 579.272 438.107 572.075 429.415 565.678C428.065 565.044 428.196 563.26 429.173 562.509C411.911 556.825 394.394 551.872 376.872 547.397C358.257 542.896 339.498 539.044 320.995 534.023C308.563 531.17 295.95 529.027 283.855 524.865C272.042 520.468 260.272 515.888 248.661 510.96C232.793 503.658 217.464 495.205 201.512 488.084C201.355 487.993 201.192 487.878 201.01 487.794C198.367 488.566 195.705 489.265 193.051 489.947C199.259 501.951 183.592 496.583 177.73 499.09C168.488 504.953 157.21 505.753 146.732 507.957C141.34 508.855 131.948 511.497 126.739 508.489C125.232 507.62 124.078 506.285 123.475 504.286C122.263 504.464 121.061 504.626 119.858 504.789C119.639 504.516 119.476 504.255 119.354 503.996C114.857 504.429 110.977 504.445 109.314 503.485C108.969 503.286 108.731 503.044 108.593 502.777L108.521 502.756ZM433.055 563.83C434.336 564.8 435.554 565.879 436.847 566.793C437.064 566.271 437.32 565.792 437.596 565.387C436.077 564.865 434.574 564.352 433.055 563.83ZM543.551 615.153C535.752 612.718 527.779 610.329 520.001 607.531C527.214 610.693 534.689 613.254 542.335 615.265C547.744 616.696 553.315 617.447 558.871 618.294C553.776 617.191 548.658 616.2 543.558 615.177L543.551 615.153ZM468.001 573.999C469.051 574.898 470.101 575.796 471.169 576.664C470.11 575.635 469.052 574.606 467.993 573.577C468.008 573.732 468.008 573.878 467.991 574.014L468.001 573.999ZM86.3278 490.611C89.2933 492.323 92.5507 493.494 95.7997 494.534C95.782 496.195 96.454 497.857 97.7956 498.903C97.9435 499.01 98.0757 499.107 98.2145 499.229C93.3652 497.808 88.6794 495.959 84.2179 493.613C82.3181 492.266 84.3562 489.243 86.3278 490.611ZM116.423 421.199C118.016 424.166 116.462 426.821 113.484 427.922C110.462 429.604 107.477 431.369 104.411 432.984C94.6147 437.92 83.6613 440.079 73.0725 442.657C68.3833 444.002 40.8665 444.955 39.6694 440.252C39.5622 436.597 44.7655 437.658 47.1759 437.107C51.8328 436.578 56.4745 435.894 61.0431 434.938C71.9505 432.461 85.9693 424.196 85.5171 411.608C84.8458 403.386 76.5586 398.1 69.0466 396.834C67.978 396.656 66.9088 396.623 65.8239 396.582C63.6655 396.443 63.6695 393.103 65.8133 392.941C73.0904 389.287 81.0114 385.858 87.8393 381.025C91.6146 378.4 94.5981 374.899 97.6328 371.491C99.2868 369.604 103.372 364.63 105.022 368.946C104.164 387.065 110.05 404.483 116.439 421.208L116.423 421.199ZM265.881 356.373C274.202 355.912 280.527 353.401 270.631 347.06C264.419 343.035 261.029 335.354 253.902 332.806C243.253 330.669 232.592 328.588 222.839 323.521C213.807 318.766 205.175 313.135 197.15 306.851C190.726 300.802 186.113 292.811 178.762 287.752C179.271 285.059 179.911 282.357 180.907 279.798C181.995 277.877 179.158 276.051 177.843 277.82C169.934 296.34 177.208 317.839 187.704 333.865C192.036 340.022 196.774 345.912 201.857 351.458C207.799 358.232 215.452 363.131 221.7 369.558C227.737 376.24 228.13 386.286 234.553 392.627C242.563 401.618 257.619 396.919 264.352 388.626C271.643 379.151 268.318 366.973 265.906 356.367L265.881 356.373ZM200.274 201.539C201.566 198.503 205.628 197.192 205.848 193.224C206.367 191.999 208.114 191.691 208.977 192.733C210.134 194.424 208.69 196.599 207.86 198.146C208.466 200.502 200.461 206.431 200.283 201.523L200.274 201.539ZM104.389 38.1236C105.377 38.2969 106.211 39.134 105.8 40.4632C108.171 49.4371 118.142 52.7493 124.701 58.1658C148.957 76.7036 161.818 87.7643 154.73 120.297C152.637 131.06 147.614 141.427 148.29 152.576C148.372 153.376 148.486 154.194 148.658 154.983C148.924 155.428 149.205 155.883 149.513 156.291C149.934 156.868 150.406 157.391 150.963 157.839C151.01 157.866 151.064 157.918 151.102 157.961C151.234 158.058 151.351 158.146 151.483 158.243C151.763 158.447 152.068 158.643 152.366 158.815C153.401 159.413 154.523 159.789 155.774 159.906C157.202 160.041 158.812 159.717 160.153 159.133C152.556 171.712 146.375 180.135 161.121 195.251C162.627 196.81 164.157 198.362 166.011 199.536C166.284 199.715 166.591 199.872 166.889 200.044C167.755 200.502 168.627 200.984 168.843 201.986C169.047 204.967 165.683 204.09 163.966 203.224C160.977 202.167 158.036 201.283 154.935 200.747C146.112 198.056 146.558 212.394 142.211 209.885C141.6 209.532 140.886 208.848 140.052 207.719C120.739 176.888 118.715 165.21 128.403 130.168C130.424 119.238 133.835 107.46 130.117 96.5801C123.16 81.3443 117.715 79.9766 113.023 79.0438C109.663 78.3781 106.688 77.9141 103.79 72.7517C100.503 62.9358 95.2933 51.3412 100.135 41.2878C99.9166 40.3258 99.9086 39.5064 100.062 38.8426C99.9805 37.7512 100.655 37.0541 101.44 36.8179C102.777 36.0231 104.507 36.5415 104.351 38.0807L104.389 38.1236Z" fill="#725348"/>
<path fill-rule="evenodd" clip-rule="evenodd" d="M203.147 233.304C197.36 228.689 203.797 223.192 209.169 223.055C213.943 223.012 219.257 225.223 222.298 228.942C223.872 228.535 224.947 226.962 226.534 226.75C226.917 226.449 227.421 226.301 227.904 226.371C231.389 227.401 228.34 232.138 226.727 233.735C220.197 239.429 209.841 238.089 203.147 233.304ZM207.721 230.889C208.125 231.06 208.529 231.23 208.942 231.385C209.651 231.606 210.369 231.812 211.071 232.009C212.016 229.358 216.204 230.982 218.4 230.077C215.227 227.89 211.109 225.783 207.219 227.194C207.476 227.509 207.623 227.908 207.615 228.321C207.623 229.14 207.097 229.797 206.368 230.045C206.778 230.386 207.217 230.64 207.681 230.887L207.721 230.889Z" fill="#735349"/>
<path fill-rule="evenodd" clip-rule="evenodd" d="M497.844 419.472C506.42 430.67 471.598 428.659 467.514 424.608C462.469 420.192 470.439 416.498 474.414 416.099C482.14 415.002 491.092 415.114 497.844 419.472ZM347.413 406.663C344.176 404.732 340.987 402.682 337.956 400.431C336.407 399.202 334.909 397.919 333.444 396.614C333.221 396.422 332.988 396.246 332.746 396.085C332.697 395.807 332.633 395.519 332.601 395.249C332.594 395.079 332.579 394.924 332.573 394.753C333.327 393.412 335.028 392.494 338.014 392.504C339.797 392.677 341.582 392.955 343.346 393.306C343.887 393.492 344.437 393.663 344.977 393.85C349.433 395.336 353.91 396.751 358.443 398.031C362.807 399.276 367.218 400.298 371.667 401.216C375.972 402.093 380.255 403.082 384.563 403.919C389.279 404.845 394.016 405.699 398.751 406.448C403.212 407.164 407.728 407.641 412.203 408.26C412.919 408.36 413.651 408.47 414.367 408.57C422.817 410.022 431.278 411.167 439.79 411.715C444.071 411.909 448.591 412.053 452.637 413.742C458.017 416.054 456.074 420.761 451.345 422.356C426.282 431.85 398.426 425.816 373.645 418.299C370.318 417.213 366.92 416.213 363.532 415.197C362.971 414.936 362.426 414.684 361.875 414.407C360.18 413.575 358.545 412.673 356.887 411.778C353.741 410.088 350.566 408.484 347.491 406.709L347.413 406.663Z" fill="#AE8F85"/>
<path fill-rule="evenodd" clip-rule="evenodd" d="M164.358 427.46C164.877 429.786 166.401 432.546 164.485 434.595C159.171 439.633 153.899 444.779 147.45 448.411C143.686 450.039 137.963 455.385 134.251 451.633C129.928 447.09 126.965 441.388 123.971 435.92C121.895 434.262 121.343 431.269 120.165 428.96C117.651 422.807 115.17 416.632 112.772 410.421C105.586 390.436 104.435 368.733 103.119 347.749C98.3287 339.739 119.77 347.063 122.195 348.588C144.467 359.692 157.706 383.36 160.661 407.484C161.806 414.162 162.647 420.894 164.349 427.476L164.358 427.46ZM675.864 652.35C674.731 654.349 672.669 655.456 670.701 656.472C670.296 657.283 670.516 658.497 670.274 659.422C669.756 662.821 667.077 664.889 664.184 666.311C664.876 668.737 663.055 671.237 661.029 672.428C657.231 674.477 652.559 673.764 648.646 672.424C644.576 670.994 640.535 669.371 636.836 667.152C632.657 664.426 629.038 660.874 625.304 657.631C622.91 655.581 620.498 653.562 617.947 651.712C617.25 651.143 617.505 650.267 618.102 649.922C616.733 649.612 615.387 649.19 614.065 648.761C613.065 648.246 610.759 648.001 611.257 646.45C611.475 645.928 612.134 645.619 612.663 645.862C613.446 646.21 614.238 646.542 615.041 646.817C617.596 647.645 620.218 648.323 622.911 648.478C628.229 648.832 633.625 647.748 638.354 645.318C643.38 642.809 648.296 639.296 650.809 634.145C652.302 631.016 653.519 627.603 653.782 624.14C653.821 623.494 653.819 622.845 653.767 622.21C653.73 621.875 653.718 621.534 653.899 621.22C654.188 620.719 654.865 620.525 655.383 620.824C655.928 621.075 656.052 622.275 655.981 623.592C657.085 624 657.766 625.103 658.587 625.891C660.088 627.531 661.657 629.126 663.192 630.743C665.458 633.159 667.835 635.492 669.835 638.151C671.168 639.902 672.331 641.765 673.543 643.614C675.153 646.152 677.691 649.33 675.862 652.39L675.864 652.35ZM462.359 566.125C463.521 568.822 469.937 572.965 465.875 575.217C462.964 575.73 460.014 574.027 457.168 573.449C449.485 571.102 441.621 569.466 433.925 567.216C418.576 563.181 402.947 560.321 387.478 557.219C371.251 554.452 355.117 550.256 339.136 546.774C323.984 544.065 309.139 540.028 293.993 537.237C268.459 531.458 242.593 525.529 218.982 513.882C212.336 510.755 205.836 507.337 199.076 504.479C198.301 504.01 197.415 503.624 196.513 503.229C195.69 502.879 194.876 502.513 194.123 502.079C193.04 501.454 192.145 500.686 191.644 499.561C191.158 497.358 193.585 496.524 195.107 495.627C191.726 490.541 200.328 490.389 203.361 489.34C203.324 485.997 215.54 481.977 220.05 480.109C220.122 479.984 220.17 479.865 220.249 479.765C220.401 479.79 220.554 479.816 220.707 479.841C221.109 479.906 221.526 479.98 221.928 480.045C222.33 480.11 222.732 480.175 223.149 480.249C224.981 480.554 226.82 480.884 228.65 481.23C229.164 481.318 229.684 481.431 230.199 481.519C230.52 481.579 230.841 481.639 231.153 481.714C231.433 481.772 231.714 481.829 231.994 481.887C232.01 481.896 232.026 481.905 232.05 481.899C232.315 481.947 232.587 482.02 232.852 482.069C233.117 482.117 233.388 482.19 233.653 482.239C236.014 482.787 238.403 483.289 240.775 483.781C241.112 483.85 241.449 483.919 241.801 483.997C242.827 484.213 243.837 484.421 244.854 484.652C245.191 484.721 245.543 484.8 245.871 484.884C246.551 485.047 247.224 485.185 247.895 485.364C248.575 485.527 249.246 485.705 249.911 485.859C250.454 486.005 250.988 486.167 251.522 486.329C251.928 486.459 252.327 486.565 252.734 486.695C253.14 486.825 253.53 486.946 253.936 487.076C254.199 487.164 254.461 487.253 254.724 487.342C255.511 487.609 256.314 487.885 257.102 488.151C257.364 488.24 257.627 488.329 257.896 488.443C258.421 488.62 258.953 488.823 259.469 489.016C260.525 489.396 261.573 489.792 262.62 490.188C267.921 492.204 273.204 494.251 278.459 496.345C278.8 496.479 279.141 496.613 279.482 496.748C279.823 496.882 280.164 497.016 280.505 497.15C281.012 497.359 281.519 497.568 282.035 497.762C283.564 498.373 285.069 498.992 286.59 499.619C286.59 499.619 286.606 499.628 286.622 499.637C287.279 499.912 287.961 500.18 288.627 500.44C288.627 500.44 288.643 500.449 288.658 500.458C289.324 500.717 289.966 500.983 290.632 501.242C291.996 501.779 293.36 502.315 294.748 502.846C294.955 502.923 295.145 502.991 295.343 503.084C295.58 503.18 295.827 503.26 296.081 503.364C297.422 503.867 298.757 504.345 300.11 504.792C305.901 506.756 311.859 508.212 317.823 509.587C318.247 509.685 318.656 509.775 319.08 509.874C319.489 509.963 319.881 510.044 320.29 510.133C320.306 510.142 320.321 510.152 320.346 510.145C325.058 511.152 329.794 512.006 334.54 512.845C340.202 513.837 345.894 514.741 351.56 515.652C357.059 516.528 362.534 517.517 368.016 518.53C374.158 519.777 380.313 520.929 386.441 522.273C393.44 523.848 400.356 525.856 407.108 528.292C409.728 529.262 412.324 530.238 414.869 531.373C417.39 532.515 419.897 533.754 422.361 535.03C424.618 536.229 426.84 537.491 428.982 538.853C430.593 539.867 432.162 540.919 433.712 542.002C434.071 542.251 434.429 542.499 434.794 542.773C434.81 542.782 434.841 542.8 434.857 542.809C434.888 542.827 434.936 542.854 434.967 542.872C434.983 542.882 435.014 542.9 435.03 542.909C435.03 542.909 435.061 542.927 435.077 542.936C435.155 542.981 435.249 543.035 435.334 543.106C436.571 544.007 437.783 544.916 438.977 545.856C439.566 546.321 440.17 546.796 440.759 547.261C441.348 547.727 441.944 548.217 442.533 548.682C445.057 550.725 447.59 552.751 450.089 554.8C450.383 555.053 450.685 555.29 450.994 555.552C451.287 555.805 451.59 556.042 451.899 556.304C452.989 557.205 454.055 558.113 455.137 559.03C455.84 559.624 456.558 560.227 457.262 560.821C458.321 561.704 459.389 562.572 460.457 563.439C461.137 564.291 461.798 565.175 462.426 566.08L462.359 566.125ZM205.052 225.984C204.444 220.515 232.176 220.167 225.52 227.167C223.738 229.565 220.161 228.043 217.633 228.798C214.17 228.888 205.596 231.02 205.043 226L205.052 225.984ZM139.569 206.02C140.171 207.078 140.35 208.581 138.73 208.669C137.914 208.596 137.106 208.003 136.433 207.719C135.022 207.155 133.475 206.283 131.924 206.579C131.19 207.053 131.504 208.175 131.607 208.903C131.789 210.073 132.6 211.314 132.052 212.481C131.156 214.033 129.138 213.035 127.757 212.927C127.225 212.87 126.738 213.133 126.235 213.28C125.025 213.564 123.972 212.706 123.002 212.104C111.996 204.496 106.027 199.942 99.9646 187.542C96.6475 179.735 94.9232 171.344 93.7897 162.98C93.1066 158.365 92.6957 153.678 93.2079 149.022C94.18 139.91 98.1934 131.509 100.198 122.638C102.147 114.696 104.489 106.835 105.5 98.7063C106.405 91.8121 106.417 84.7988 105.961 77.8707C105.444 77.2799 105.848 76.2178 106.648 76.1365C107.684 76.0452 108.737 76.2144 109.738 76.4372C113.305 77.1803 116.121 79.2239 118.911 81.4201C121.664 83.5734 124.477 85.8034 126.47 88.7297C130.069 94.3805 131.764 101.627 132.287 108.259C132.489 112.763 131.526 117.222 130.761 121.627C128.11 136.329 121.544 150.527 121.917 165.681C122.353 170.216 123.293 174.748 124.831 179.042C127.047 185.022 130.743 190.29 133.929 195.786C135.954 199.128 137.994 202.478 139.6 206.038L139.569 206.02ZM212.18 337.383C212.908 337.824 213.637 338.266 214.374 338.691C215.049 339.081 215.724 339.471 216.426 339.813C217.946 340.586 219.695 339.006 219.413 337.464C219.557 336.419 218.869 335.29 217.14 335.024C208.473 329.852 201.72 321.837 198.693 312.151C195.256 303.356 191.977 293.816 193.025 284.246C200.204 299.025 211.681 313.173 225.624 321.996C228.73 323.936 231.927 325.718 235.178 327.407C235.206 327.612 235.26 327.81 235.337 328.001C241.835 333.089 253.096 335.036 261.338 335.073C266.538 335.234 271.285 333.608 275.702 331.248C277.656 332.502 282.245 332.018 284.059 332.209C290.558 331.824 297.193 329.282 301.283 324.081C305.436 319.208 306.596 312.669 308.53 306.746C310.05 302.337 311.065 297.428 309.253 293.102C309.125 292.527 308.987 291.967 308.81 291.405C306.479 285.839 302.176 282.205 297.19 279.389C294.197 277.327 290.991 275.56 287.81 273.932C282.303 271.149 276.305 269.254 271.427 265.455C263.429 257.495 258.998 246.036 253.032 236.512C252.592 236.007 252.15 235.251 251.67 234.451C251.654 234.442 251.641 234.393 251.634 234.368C251.353 233.913 251.068 233.393 250.791 232.857C250.222 231.923 249.677 230.982 249.176 230.003C248.774 229.249 248.422 228.481 248.104 227.692C247.951 227.269 247.797 226.846 247.669 226.417C247.529 225.897 247.455 225.374 247.461 224.855C247.446 224.846 247.43 224.837 247.414 224.828C242.27 221.816 236.448 226.248 235.509 231.535C233.073 245.464 242.12 264.58 220.49 266.027C215.394 266.157 210.361 265.779 205.295 264.734C198.816 263.563 191.169 260.067 184.733 263.351C174.063 268.932 175.936 283.552 177.958 293.494C181.724 312.445 196.325 327.268 212.106 337.403L212.18 337.383ZM79.1616 441.242C79.4646 441.333 79.7608 441.4 80.0637 441.491C79.7019 442.118 79.0443 442.532 78.1012 442.427C77.3535 442.308 76.6059 442.19 75.8607 442.031C67.5413 442.744 59.226 442.978 50.8985 442.328C46.7302 442.01 42.5949 441.274 38.5254 440.386C33.211 439.01 27.4496 438.191 22.6483 435.419C22.3816 435.265 22.1148 435.111 21.8414 434.932C20.6205 434.04 19.8798 432.714 19.3123 431.341C18.3834 430.45 17.2109 429.835 16.0474 429.206C14.357 428.292 12.642 427.386 11.6332 425.654C9.47755 421.923 12.1087 421.207 7.73164 418.534C1.09902 406.577 23.3501 401.519 31.6699 402.436C31.7508 402.441 31.8473 402.455 31.9191 402.476C31.9216 402.435 31.9149 402.411 31.9173 402.37C32.3149 400.051 34.6494 399.957 35.7654 401.249C35.9496 401.836 36.1495 402.432 36.3584 403.012C36.356 403.053 36.3603 403.118 36.3579 403.158C37.3834 406.926 39.2216 410.264 41.5238 413.307C42.9356 415.355 44.5164 417.291 46.131 419.205C49.0517 422.625 52.1999 425.906 55.7184 428.689C58.7173 431.068 61.8766 433.206 65.1873 435.117C65.9875 435.579 66.7877 436.041 67.5994 436.447C71.2649 438.396 75.156 440.099 79.1616 441.242ZM141.978 509.454C140.62 509.087 139.289 508.674 137.945 508.212C135.726 507.453 133.571 506.585 131.456 505.573C130.021 504.87 128.602 504.176 127.221 503.378C126.562 502.998 125.897 502.593 125.265 502.165C122.152 500.055 119.174 497.75 116.334 495.275C116.155 495.151 115.985 495.011 115.806 494.886C109.128 489.966 103.157 484.074 99.7248 476.43C97.8523 473.26 97.0548 469.749 97.098 466.16C96.2611 464.131 93.161 464.681 92.9215 466.799C83.7457 464.719 62.0083 468.235 64.6317 481.157C67.1614 486.921 71.5769 491.267 76.2362 495.336C78.6996 499.077 81.4743 502.497 85.5345 504.632C85.8393 504.829 86.1531 505.01 86.4826 505.201C91.5663 508.136 97.5594 508.88 103.363 509.118C115.792 510.13 128.354 512.431 140.816 510.705C141.446 510.338 141.821 509.906 141.993 509.463L141.978 509.454Z" fill="#FDC196"/>
<path fill-rule="evenodd" clip-rule="evenodd" d="M629.94 686.633C630.406 688.762 630.286 691.325 628.501 692.822C627.696 693.673 626.526 694.105 625.745 694.95C625.573 695.394 625.434 695.815 625.325 696.149C624.677 698.323 622.938 699.994 621.216 701.381C619.069 703.108 616.299 703.557 613.835 704.6C611.732 709.945 603.993 707.442 600.331 705.16C592.183 699.453 586.797 690.953 581.341 682.83C578.799 678.898 575.863 675.468 572.891 671.956C572.047 671.677 571.263 671.225 570.455 670.884C569.869 670.921 569.356 670.395 569.349 669.827C569.345 669.219 569.819 668.761 570.405 668.724C571.147 668.671 571.751 669.146 572.409 669.421C573.774 670.063 575.244 670.452 576.737 670.729C581.884 671.779 587.239 670.838 592.123 669.082C598.96 666.553 606.473 661.656 607.465 653.851C607.5 652.994 608.672 652.521 609.292 653.151C610.271 654.426 611.205 655.78 611.914 657.234C613.906 661.936 617.502 665.6 620.533 669.627C623.132 673.133 625.335 676.891 627.402 680.738C628.41 682.616 629.441 684.527 629.925 686.624L629.94 686.633ZM193.447 323.266C190.525 320.138 188.031 316.63 186.042 312.828C184.643 310.432 183.404 307.941 182.214 305.436C180.536 301.856 179.036 298.149 178.17 294.285C177.999 293.205 177.34 290.651 177.34 288.729L177.301 288.581C177.301 288.581 177.319 288.55 177.312 288.525C177.296 288.516 177.29 288.491 177.283 288.466C177.27 288.417 177.256 288.367 177.243 288.318C177.217 288.219 177.206 288.129 177.17 288.046C177.171 287.754 177.309 287.479 177.533 287.273C177.592 287.098 177.673 286.957 177.77 286.825C177.947 286.447 178.177 286.12 178.585 285.958C179.307 285.686 180.116 285.589 180.827 285.916C183.292 285.668 185.803 285.885 188.275 285.516C192.859 284.861 192.503 287.831 193.25 291.25C195.083 300.54 197.794 309.794 202.604 318.023C206.27 324.465 210.915 330.406 216.377 335.44C217.897 336.756 219.472 337.979 221.001 339.279C221.798 340.074 223.264 340.795 223.032 342.103C222.825 342.86 221.975 343.101 221.261 342.96C218.564 342.594 216.096 341.399 213.742 340.04C213.177 339.714 212.628 339.397 212.088 339.064C209.154 337.224 206.253 335.256 203.464 333.166C200.777 330.862 198.27 328.391 195.809 325.842C195.008 324.983 194.207 324.123 193.431 323.257L193.447 323.266ZM204.356 227.986C203.38 227.756 203.285 226.218 204.303 226.012C204.78 225.911 205.29 225.934 205.791 225.972C204.57 225.079 205.931 223.483 207.072 224.477C209.443 225.407 212.085 225.47 214.61 225.59C217.195 225.641 219.777 225.482 222.335 225.036C223.262 224.882 224.174 224.678 225.081 224.449C225.901 224.296 226.867 223.746 227.635 224.336C229.897 226.832 222.778 228.509 221.157 228.744C217.389 229.472 213.52 229.181 209.717 229.137C208.571 229.165 207.418 229.168 206.271 229.091C205.491 229.1 204.328 229.014 204.356 227.986ZM309.054 303.266C308.847 302.102 307.627 301.461 306.665 302.222C304.81 303.804 302.859 305.372 300.53 306.18C299.372 306.556 298.132 307.073 296.893 306.755C295.591 306.546 295.702 305.231 294.995 304.426C293.763 303.443 292.945 305.186 292.257 305.979C291.284 307.193 290.145 308.332 288.917 309.482C278.857 319.26 264.31 323.439 250.49 321.142C238.13 319.105 226.824 312.744 217.023 305.079C211.139 300.45 205.075 295.842 200.687 289.673C199.375 287.85 198.267 285.894 197.475 283.786C197.186 283.055 196.956 282.003 195.993 281.969C195.993 281.969 195.993 281.969 195.977 281.96C195.087 281.906 194.534 283.154 195.393 283.733C195.413 283.807 195.457 283.875 195.477 283.949C195.129 284.625 195.476 285.473 195.383 286.214C195.104 289.27 196.251 292.356 197.649 295.043C200.692 301.731 205.996 306.966 211.155 312.054C213.598 314.489 215.945 317.056 218.682 319.2C223.344 322.685 228.323 325.727 233.297 328.745C242.131 333.845 252.735 336.458 262.87 334.558C265.084 334.165 267.281 333.658 269.425 332.952C271.822 332.205 274.006 330.959 276.404 330.212C277.07 330.074 277.613 330.075 278.282 330.294C282.677 331.849 287.088 332.181 291.369 330.057C296.593 327.494 300.951 322.845 304.048 317.989C306.096 314.512 309.93 307.22 309.087 303.244L309.054 303.266ZM26.5994 422.742C26.5994 422.742 26.5922 422.863 26.5717 422.934C28.401 426.832 32.5795 429.161 36.2703 430.958C36.9003 431.279 37.5328 431.561 38.1899 431.836C40.9585 432.766 43.791 433.44 46.676 433.915C47.8122 434.049 48.9755 434.135 50.1099 434.163C53.7732 434.377 57.4418 434.364 61.0934 434.091C61.8911 434.05 62.6731 434 63.4617 433.975C63.6186 434.065 63.7936 434.125 63.9752 434.209C64.3071 434.358 64.63 434.524 64.9619 434.674C66.3994 435.337 67.8525 436.008 69.299 436.655C71.2072 437.59 73.1334 438.493 75.0898 439.163C75.9153 439.473 77.2066 439.591 77.2292 440.712C77.1598 442.97 69.9487 442.922 68.1754 443.131C64.0947 443.387 60.0121 442.993 55.9542 442.594C49.9539 441.971 43.9163 441.702 37.9533 440.725C33.155 440.086 28.2352 438.896 24.0145 436.459C23.0417 435.897 22.0893 435.264 21.198 434.561C20.2372 433.798 19.8621 432.599 19.2144 431.619C18.6664 431.01 17.9265 430.625 17.2114 430.233C16.8662 430.034 16.512 429.85 16.1758 429.635C14.4547 428.558 12.7094 427.341 11.5522 425.649C11.0005 424.829 10.5682 423.911 10.3248 422.956C10.1707 422.136 9.99191 421.322 9.37871 420.717C8.58682 419.842 7.53132 419.17 7.02114 418.061C6.24666 416.757 6.06643 415.149 6.52583 413.701C6.86169 412.829 7.24574 411.693 8.13261 411.244C7.89767 410.419 7.61439 409.315 8.26406 408.625C8.65858 408.268 9.25171 408.255 9.63436 408.643C10.1492 409.128 9.72454 409.719 9.8864 410.272C10.2357 412.312 12.2155 412.724 13.8985 413.215C14.9607 413.912 14.7571 415.424 15.2293 416.49C16.0216 418.995 18.0375 421.12 20.6955 421.589C22.5764 422.028 23.8914 420.656 25.011 421.616C25.2299 421.345 25.5473 421.194 25.9606 421.203C26.7106 421.281 27.0597 422.234 26.597 422.782L26.5994 422.742ZM85.3775 488.852C86.2323 490.306 87.5956 491.532 88.7888 492.618C91.9169 495.28 95.9179 497.047 99.7841 498.214C105.366 500.141 111.308 500.647 117.183 500.508C118.646 500.475 120.109 500.442 121.538 500.285C121.815 500.132 122.121 500.037 122.395 500.07C122.731 500.285 123.051 500.491 123.388 500.706C123.513 500.778 123.654 500.86 123.78 500.932C123.777 500.973 123.784 500.997 123.782 501.038C124.592 501.735 125.488 502.357 126.342 502.871L126.358 502.88C127.046 503.319 127.734 503.758 128.415 504.173C128.996 504.508 129.601 504.836 130.2 505.14C133.174 506.439 136.295 507.447 139.346 508.54C140.117 508.944 139.939 510.157 139.092 510.357C138.952 510.381 138.838 510.399 138.698 510.423C138.505 510.541 138.26 510.566 137.988 510.493C137.572 510.525 137.141 510.547 136.732 510.604C133.727 510.916 130.735 511.278 127.72 511.355C119.648 511.458 111.535 512.791 103.512 511.251C96.6248 509.991 89.9217 507.542 83.8495 504.036C83.0649 503.583 82.2738 503.105 81.5073 502.621C78.5001 500.655 74.7743 498.629 75.4532 494.446C75.4349 493.934 74.9419 493.628 74.5677 493.37C71.1937 491.568 67.2088 489.122 67.1601 484.894C65.3774 484.032 63.9387 483.118 63.882 480.933C63.3556 477.641 64.8306 474.398 67.319 472.262C67.5513 472.041 67.8511 471.776 68.1733 471.544C68.0107 470.593 68.125 469.489 68.9449 468.939C70.0459 468.3 71.1723 469.828 70.0797 470.597C69.8797 471.777 70.8213 472.864 71.896 473.212C72.5242 473.429 73.2887 473.264 73.8125 473.734C74.652 474.49 73.8137 475.761 73.7294 476.632C73.4077 478.494 73.8916 480.591 75.3672 481.839C77.147 483.431 79.4624 484.204 81.8024 484.427C82.853 484.636 84.2377 484.412 84.9958 485.309C85.6145 486.231 84.7725 487.29 85.1752 488.296C85.2217 488.469 85.2839 488.651 85.3395 488.809L85.3775 488.852ZM656.375 660.089C656.023 659.865 655.671 659.641 655.319 659.417C654.786 659.109 654.252 658.801 653.737 658.462C652.827 657.936 651.219 656.444 652.696 655.625C652.996 655.506 653.27 655.538 653.489 655.665C654.167 655.325 655.06 655.988 654.86 656.77C655.297 657.064 655.734 657.358 656.171 657.652C656.469 657.824 656.785 657.965 657.076 658.112C657.523 656.615 659.153 657.849 660.182 657.879C662.813 658.395 665.272 658.666 667.881 658.313C669.012 658.276 670.21 657.505 671.309 657.993C672.229 658.609 671.711 659.542 670.984 660.041C671.013 660.1 671.033 660.174 671.028 660.255C671.025 661.674 669.106 662.279 667.995 662.682C663.98 663.874 659.74 662.304 656.384 660.073L656.375 660.089ZM622.567 648.384C623.686 648.403 624.807 648.382 625.917 648.271C626.301 648.221 626.606 648.418 626.792 648.713C626.978 648.716 627.162 648.76 627.319 648.85L627.669 648.823C629.41 650.809 631.348 652.597 633.174 654.508C639.733 661.157 647.815 666.471 656.852 668.973C658.185 669.345 659.573 669.478 660.95 669.667C662.771 669.882 663.226 672.464 661.556 673.255C655.222 674.696 648.711 672.42 643.125 669.195C642.043 668.57 641.003 667.907 639.988 667.238C638.464 666.253 636.974 665.247 635.74 664.304C633.798 662.849 631.968 661.271 630.175 659.629C625.337 657.755 621.023 653.886 616.963 650.915C615.943 649.783 613.497 649.165 613.006 647.732C613.406 647.837 613.789 647.934 614.198 648.023C613.994 647.905 613.781 647.803 613.552 647.692C613.097 647.429 612.99 646.782 613.274 646.362C613.941 645.389 614.939 646.341 615.661 646.612C617.875 647.451 620.281 648.067 622.558 648.4L622.567 648.384ZM467.555 572.489C468.616 573.331 469.48 574.916 468.347 576.08C465.923 577.815 462.648 575.443 460.091 574.907C446.078 570.264 432.249 564.828 417.668 562.218C401.793 560.219 386.021 557.569 370.459 553.723C341.164 546.922 311.504 541.874 282.367 534.328C269.492 531.407 256.705 527.973 244.01 524.342C226.042 518.105 208.437 510.406 192.077 500.73C189.927 498.403 193.364 496.835 194.415 495.123C190.938 489.042 202.505 489.661 205.966 488.379C205.657 486.341 206.369 485.687 207.656 485.886C207.639 484.393 209.653 483.55 210.705 484.555C230.085 498.564 251.688 508.906 274.697 515.4C300.815 523.501 327.627 529.747 354.621 533.903C386.272 539.307 419.424 541.023 448.665 555.419C451.2 556.716 459.651 562.117 461.039 565.656C463.338 567.798 465.393 570.217 467.521 572.511L467.555 572.489ZM149.904 441.951C150.248 442.296 150.6 442.666 150.96 443.02C151.952 443.948 151.517 445.243 150.646 445.847C148.792 448.768 144.664 450.772 142.267 453.294C139.872 456.028 136.638 455.832 133.939 454.274C132.794 453.613 131.76 452.723 130.903 451.706C127.267 447.351 124.116 442.627 121.36 437.652C121.591 436.782 121.637 435.868 121.506 434.936C121.344 433.694 120.922 432.468 120.556 431.254C120.27 430.336 119.984 429.419 119.697 428.502C119.238 427.087 118.778 425.673 118.319 424.258C117.804 422.687 117.295 421.14 116.78 419.568C116.134 417.607 115.628 415.476 114.556 413.708C114.099 412.943 113.364 412.331 112.555 411.884C111.716 409.206 110.918 406.531 110.153 403.833C109.6 401.675 109.056 399.501 108.543 397.346C108.037 395.215 107.555 393.077 107.173 390.914C106.733 388.487 106.349 386.072 105.958 383.632C105.63 381.52 105.301 379.408 104.981 377.28C104.867 375.522 104.768 373.772 104.644 372.03C104.833 369.673 103.382 365.555 105.067 363.833C103.902 359.4 103.143 354.846 102.805 350.284C102.888 348.222 101.31 344.323 104.348 343.988C104.519 343.982 104.672 344.008 104.8 344.04C104.896 344.597 104.986 345.13 105.083 345.687C105.864 350.024 106.759 354.343 107.605 358.676C108.471 363.082 109.519 367.427 110.74 371.726C112.037 376.256 113.448 380.769 115.242 385.126C116.913 389.225 118.76 393.237 120.681 397.229C122.587 401.213 124.658 405.125 126.823 408.986C128.971 412.838 131.374 416.503 133.885 420.125C134.131 420.497 134.401 420.862 134.647 421.234C137.503 425.745 140.552 430.138 143.798 434.372C144.92 436.378 148.141 439.387 149.901 441.991L149.904 441.951ZM117.483 207.893C116.933 207.033 117.203 205.914 118.023 205.364C120.864 200.152 113.981 190.223 112.389 184.792C107.362 172.446 106.698 158.921 109.448 145.968C113.781 129.332 118.172 109.804 108.145 94.3421C107.475 93.3285 106.535 92.4931 105.676 91.6626C105.086 90.7998 105.461 89.6792 106.216 89.133C106.184 89.1149 106.168 89.1058 106.146 89.072C105.628 88.7731 105.28 88.2168 105.244 87.5903C105.213 87.0289 105.462 86.525 105.841 86.1587C105.428 81.9091 105.005 72.0964 111.875 76.2505C116.452 78.4333 121.095 80.8633 124.544 84.6724C131.228 92.7723 134.177 103.898 132.434 114.236C130.025 132.505 120.583 149.91 123.376 168.696C123.845 175.277 126.439 181.329 129.722 186.985C132.775 192.675 137.634 197.486 139.4 203.812C140.078 205.645 139.628 208.562 137.111 208.32C135.268 208.071 133.899 206.528 132.105 206.119C132.828 208.709 133.705 214.147 129.234 212.108C127.617 211.175 126.038 212.896 124.359 212.072C122.503 210.938 120.057 210.32 118.587 208.698C118.17 208.624 117.762 208.389 117.433 207.907L117.483 207.893Z" fill="#E4A272"/>
<path fill-rule="evenodd" clip-rule="evenodd" d="M311.017 282.943C319.323 287.362 312.2 294.845 307.416 298.747C304.494 301.343 301.436 303.777 298.365 306.162C298.48 307.231 297.101 307.772 296.452 306.938C296.145 306.781 295.937 306.452 295.885 306.109C294.384 303.78 293.152 301.313 291.651 298.984C289.842 296.247 288.159 293.437 286.753 290.474C285.312 287.281 282.259 281.987 284.675 278.744C287.4 275.366 292.01 277.526 295.476 278.336C300.557 280.225 306.168 280.435 311.026 282.927L311.017 282.943Z" fill="#775C63"/>
<path fill-rule="evenodd" clip-rule="evenodd" d="M313.433 293.614C312.678 295.538 311.371 297.186 309.943 298.681C307.162 301.505 304.014 303.949 300.592 305.964C299.106 306.652 296.613 308.869 295.157 307.297C294.113 305.88 293.505 303.962 292.702 302.453C291.237 299.665 289.956 296.773 288.448 294.022C287.326 292.016 286.253 289.997 285.464 287.849C285.337 287.525 285.393 287.14 285.603 286.885C284.299 285.192 283.564 283.096 283.316 280.989C283.249 279.801 282.856 276.712 284.873 277.459C285.328 277.721 285.487 278.315 285.25 278.763C285.227 278.875 285.229 278.98 285.231 279.086C284.696 286.027 291.363 290.169 297.168 292.037C299.746 292.898 302.612 293.007 305.161 292.034C306.619 291.539 308.09 290.947 309.24 289.897C310.259 289.002 311.11 287.927 311.898 286.815C312.219 286.332 312.605 285.844 313.21 285.775C316.018 285.767 313.945 292.112 313.424 293.629L313.433 293.614Z" fill="#584449"/>
<path fill-rule="evenodd" clip-rule="evenodd" d="M294.001 283.753C291.732 282.61 289.012 279.494 292.572 278.039C293.667 277.773 297.381 276.993 297.492 278.686C300.266 279.243 306.067 280.211 307.52 282.804C308.116 284.235 306.944 285.251 305.609 285.462C301.715 286.264 297.469 285.755 294.001 283.753Z" fill="#C8ABB3"/>
<path fill-rule="evenodd" clip-rule="evenodd" d="M269.492 380.124C268.39 384.46 266.218 388.513 262.742 391.416C256.336 397.077 250.687 396.824 243.561 392.606C237.037 388.107 234.112 378.751 231.734 371.528C229.76 365.709 228.246 359.779 225.941 354.06C221.98 344.252 218.942 333.932 212.892 325.133C211.259 322.853 209.43 320.731 207.652 318.556C204.561 315.141 201.021 312.032 198.957 307.853C198.41 308.184 197.629 307.943 197.398 307.329C197.082 306.353 196.882 305.359 196.591 304.377C195.75 301.196 194.942 297.993 194.11 294.796C193.867 293.841 193.607 292.876 193.373 291.905C193.077 291.15 193.021 290.052 193.992 289.818C195.411 289.572 195.608 291.441 196.17 292.351C196.815 293.663 197.542 294.939 198.337 296.171C199.581 298.039 201.003 299.779 202.401 301.526C204.419 304.154 206.419 306.813 208.557 309.342C210.783 312.299 213.451 314.78 216.264 317.156C220.417 320.869 224.854 324.309 229.614 327.224C233.247 329.593 237.33 331.073 241.331 332.694C245.404 333.938 249.476 335.182 253.624 336.114C255.892 336.462 257.696 337.65 259.005 339.513C261.766 343.029 263.666 347.093 265.387 351.179C268.08 357.204 270.189 363.624 270.64 370.236C270.822 373.58 270.477 376.932 269.451 380.121L269.492 380.124Z" fill="#F5766F"/>
<path fill-rule="evenodd" clip-rule="evenodd" d="M263.085 344.731C263.371 345.105 263.551 345.626 263.282 346.056C262.859 346.752 262.039 346.613 261.518 346.103C258.879 344.079 254.791 342.971 251.266 343.569C252.385 345.761 253.252 348.1 253.748 350.539C254.322 353.022 254.38 355.604 254.431 358.161C254.409 359.758 254.49 361.392 254.154 362.953C253.929 363.596 253.102 363.725 252.62 363.363C252.132 363.52 251.519 363.313 251.367 362.744C251.066 360.293 250.734 357.824 250.105 355.434C249.688 354.274 249.328 353.085 248.994 351.889C248.22 349.896 247.457 347.847 246.618 345.858C245.942 346.303 245.225 346.349 244.539 345.472C243.698 344.465 242.821 343.52 241.721 342.78C238.236 340.517 232.158 339.306 228.18 340.687C226.174 341.409 224.003 342.704 223.648 344.986C223.309 346.189 221.484 345.763 221.77 344.507C221.898 343.996 222.016 343.5 222.247 343.028C221.673 342.32 221.503 341.345 221.104 340.55C220.739 339.733 220.374 338.917 219.984 338.106C218.155 334.209 216.706 329.905 214.33 326.339C212.142 322.882 209.359 319.875 206.454 317.007C204.449 314.972 202.613 312.826 200.727 310.692C198.79 308.467 196.426 306.475 195.133 303.786C194.356 301.979 193.993 300.035 193.677 298.119C193.438 296.685 193.149 295.265 193.024 293.814C192.962 293.089 192.875 292.224 193.278 291.599C194.021 290.566 195.157 291.243 195.654 292.157C197.991 296.118 200.724 299.827 203.739 303.301C206.789 307.005 209.91 310.876 213.466 313.994C217.033 317.056 220.554 320.197 224.453 322.865C229.89 326.276 235.816 328.548 241.633 331.155C245.747 332.945 250.103 334.06 254.334 335.5C257.61 336.639 259.485 339.623 261.353 342.331C261.929 343.144 262.521 343.967 263.08 344.811L263.085 344.731ZM270.264 380.779C270.807 378.752 272.851 372.892 271.586 371.242C271.226 370.888 270.635 370.86 270.236 371.152C269.614 371.649 269.611 372.525 269.334 373.222C268.93 374.43 268.375 375.572 267.663 376.624C265.714 379.384 263.521 382.276 260.368 383.861C255.259 386.113 248.872 385.581 244.189 382.459C241.01 380.102 237.666 377.669 235.488 374.302C233.519 371.118 231.749 367.734 230.439 364.241C230.391 363.274 228.921 363.03 228.589 363.967C228.421 364.476 228.625 364.991 228.808 365.472C229.144 366.377 229.578 367.254 229.997 368.123C231.323 370.936 232.698 373.736 234.51 376.286C234.314 376.59 234.299 376.979 234.457 377.321C235.039 378.451 235.688 379.536 236.255 380.657C236.68 381.55 237.032 382.463 237.374 383.392C238.792 386.697 239.66 390.666 242.828 392.788C247.497 396.006 254.94 396.125 260.019 393.813C265.469 391.548 268.58 386.304 270.287 380.812L270.264 380.779Z" fill="#CD5048"/>
<path fill-rule="evenodd" clip-rule="evenodd" d="M168.091 200.717C168.787 197.337 173.726 199.834 176.155 199.105C187.061 198.152 197.402 194.156 207.894 191.565C215.21 192.446 210.025 201.173 206.114 203.344C205.36 203.89 204.279 203.768 203.691 203.011C202.029 200.129 208.573 198.433 208.126 195.041C202.815 196.195 169.946 207.324 168.082 200.732L168.091 200.717Z" fill="#3F1D1E"/>
<path fill-rule="evenodd" clip-rule="evenodd" d="M205.409 201.015C203.654 196.262 223.94 198.196 226.962 198.144C234.576 197.965 249.828 202.529 235.867 208.99C233.729 209.468 228.693 212.139 227.879 208.911C227.531 206.036 235.433 206.879 237.857 203.913C231.467 200.85 223.945 201.521 217.051 201.323C214.052 201.409 211.043 201.51 208.18 201.904C207.161 202.256 205.867 202.178 205.449 201.017L205.409 201.015Z" fill="#3F1D1E"/>
<path fill-rule="evenodd" clip-rule="evenodd" d="M275.468 268.457C258.299 257.792 254.217 236.925 242.695 221.623C239.275 217.727 235.109 214.507 230.559 212.025C229.413 211.364 227.869 210.995 227.358 209.634C226.512 203.38 237.411 212.513 239.28 213.697C245.223 218.006 248.977 224.331 252.457 230.623C259.213 243.236 264.483 257.372 277.111 265.394C281.939 268.808 287.069 271.373 292.302 273.977C294.319 274.869 292.927 278.077 290.882 277.126C285.61 274.48 280.28 271.862 275.452 268.448L275.468 268.457Z" fill="#3F1D1E"/>
<path fill-rule="evenodd" clip-rule="evenodd" d="M295.343 310.853C295.036 310.55 294.791 310.179 294.694 309.767C290.574 300.306 282.754 292.219 281.208 281.779C280.532 272.948 291.738 273.651 297.43 276.039C304.056 278.694 315.028 279.367 316.849 287.627C315.929 297.917 306.153 304.558 298.287 309.92C298.1 311.295 296.28 311.874 295.343 310.853ZM295.167 303.042C295.845 304.185 296.497 305.376 297.024 306.6C303.795 302.048 311.782 296.547 313.442 288.02C311.616 282.704 304.07 282.15 299.442 280.272C273.809 270.57 288.474 291.949 295.176 303.026L295.167 303.042Z" fill="#3F1D1E"/>
<path fill-rule="evenodd" clip-rule="evenodd" d="M224.883 325.454C212.895 317.592 202.737 306.922 195.393 294.639C194.48 292.127 189.428 284.969 192.969 283.545C194.319 283.238 195.051 284.434 195.242 285.589C196.143 288.449 197.383 291.192 198.885 293.772C206.979 306.822 218.244 317.965 231.62 325.562C253.271 337.268 275.232 335.866 290.071 314.766C291.979 312.984 292.72 308.837 295.279 308.246C296.634 308.255 297.447 309.999 296.573 311.04C280.023 340.178 251.746 342.99 224.883 325.454Z" fill="#3F1D1E"/>
<path fill-rule="evenodd" clip-rule="evenodd" d="M272.994 330.646C273.771 328.504 276.223 329.982 277.823 329.965C280.001 330.178 282.194 330.149 284.38 330.095C299.545 329.846 306.465 313.22 308.946 300.446C309.278 299.217 309.35 298.005 309.4 296.759C310.671 294.087 313.733 296.357 312.778 298.772C310.36 313.505 302.752 332.408 285.573 333.5C282.838 333.237 272.381 334.825 273.004 330.63L272.994 330.646Z" fill="#3F1D1E"/>
<path fill-rule="evenodd" clip-rule="evenodd" d="M179.538 286.3C180.328 283.663 183.856 285.596 185.841 284.841C190.692 283.902 194.954 280.868 198.434 277.487C200.813 273.909 204.539 275.935 202.213 278.624C201.099 279.61 200.131 280.744 198.986 281.712C195.069 284.946 190.463 287.886 185.297 288.392C183.407 288.367 179.372 289.233 179.538 286.3Z" fill="#3F1D1E"/>
<path fill-rule="evenodd" clip-rule="evenodd" d="M217.112 337.682C209.599 331.526 203.245 324.014 198.614 315.512C196.09 310.753 194.366 305.621 192.69 300.517C191.628 295.725 188.504 289.722 189.468 284.972C190.613 283.314 193.443 284.718 192.575 286.62C195.745 301.277 200.699 316.214 211.196 327.309C213.81 330.573 217.562 332.844 219.825 335.989C220.13 337.419 218.274 338.604 217.121 337.666L217.112 337.682Z" fill="#3F1D1E"/>
<path fill-rule="evenodd" clip-rule="evenodd" d="M238.035 390.292C231.846 382.06 230.013 371.538 226.455 362.046C221.674 346.666 216.312 331.349 205.437 319.095C202.521 315.594 199.671 311.942 196.297 308.908C195.182 307.324 197.329 305.346 198.872 306.55C204.521 311.985 209.272 318.322 213.887 324.642C223.319 337.149 226.621 352.845 231.853 367.336C235.402 377.386 238.127 392.017 250.61 394.022C272.213 394.941 272.45 367.5 265.498 353.124C263.352 348.145 260.659 343.351 257.387 339.018C256.478 337.657 253.858 336.144 255.576 334.4C258.601 332.386 261.905 339.997 263.542 341.945C270.066 352.46 274.437 364.928 272.607 377.41C271.912 394.955 249.522 405.219 237.997 390.25L238.035 390.292Z" fill="#3F1D1E"/>
<path fill-rule="evenodd" clip-rule="evenodd" d="M250.571 363.831C247.512 351.556 242.406 339.165 232.876 330.487C230.551 329.333 232.631 325.875 234.661 327.506C241.06 332.872 245.43 340.305 248.888 347.796C251.136 352.708 252.528 357.941 253.924 363.134C254.412 365.296 251.001 366.022 250.547 363.838L250.571 363.831Z" fill="#3F1D1E"/>
<path fill-rule="evenodd" clip-rule="evenodd" d="M206.535 255.484C202.101 251.713 207.842 243.474 212.932 246.288C218.19 249.72 211.448 258.28 206.535 255.484Z" fill="#3F1D1E"/>
<path fill-rule="evenodd" clip-rule="evenodd" d="M203.112 230.359C201.556 228.959 201.626 226.555 202.684 224.868C206.524 218.832 215.106 218.606 221.453 219.826C228.986 220.874 232.807 228.387 223.824 231.119C217.651 232.569 208.628 234.066 203.112 230.359ZM205.866 228.126C207.289 229.031 209.162 228.358 210.588 229.077C215.583 228.868 221.653 229.552 225.656 226.097C223.85 220.855 203.821 221.701 205.866 228.126Z" fill="#3F1D1E"/>
<path fill-rule="evenodd" clip-rule="evenodd" d="M251.536 233.016C251.964 229.231 260.213 231.612 262.702 232.192C283.427 236.845 297.56 254.761 317.783 260.608C330.966 265.023 345.029 265.704 358.726 263.939C372.302 261.623 386.463 257.243 396.75 247.722C400.121 243.985 406.945 237.312 402.089 232.46C397.25 230.043 391.622 229.572 386.591 227.524C379.629 225.197 373.053 221.839 366.816 217.967C351.456 208.409 337.978 195.697 321.356 188.252C296.81 178.008 270.085 187.336 247.775 198.837C244.964 200.264 242.326 202.043 239.691 203.78C239.189 204.577 238.072 204.809 237.277 204.267C236.349 203.627 236.249 202.315 237.011 201.502C259.99 186.668 288.82 175.359 316.325 182.798C337.136 189.256 352.656 205.822 371.209 216.554C377.915 220.593 385.169 223.611 392.657 225.824C396.811 227.324 401.857 227.354 405.153 230.595C412.113 239.919 399.255 250.777 392.08 255.702C372.717 267.462 348.613 270.803 326.506 266.48C315.812 264.275 305.566 260.136 296.418 254.165C288.361 249.242 281.139 242.836 272.376 239.135C267.064 237.175 261.639 234.795 255.929 234.466C254.326 234.417 251.784 235.269 251.489 232.989L251.536 233.016Z" fill="#3F1D1E"/>
<path fill-rule="evenodd" clip-rule="evenodd" d="M128.199 221.727C125.957 216.589 121.189 213.251 117.006 209.77C111.406 205.555 106.314 200.714 102.241 194.978C88.3023 173.789 87.7506 145.684 97.762 122.799C102.748 107.46 106.737 90.3324 103.004 74.3674C101.042 65.8805 96.8651 57.9324 95.6923 49.2743C94.8048 40.593 99.919 33.3292 109.304 35.3004C126.45 38.7228 143.077 46.6303 155.646 58.922C181.328 84.4466 194.546 113.66 170.887 145.797C162.42 157.309 150.065 171.173 154.444 186.487C157.247 193.809 164.652 198.377 171.975 199.534C175.07 207.4 158.058 198.31 156.635 195.775C144.18 184.301 151.771 166.224 160.034 154.594C188.819 120.173 185.339 95.3281 155.254 63.3337C147.243 55.0318 137.512 48.515 126.804 44.2338C120.101 42.1818 105.305 34.1825 100.339 41.5525C97.3296 48.2139 100.589 55.2145 102.683 61.6255C104.953 68.3472 107.299 75.1546 107.882 82.2607C108.309 92.8277 106.636 103.479 104.159 113.748C100.579 127.016 94.0213 139.714 94.2567 153.765C94.457 167.586 97.4603 182.169 105.535 193.62C111.017 201.591 119.341 206.668 126.273 213.178C128.315 215.547 131.394 218.223 131.408 221.532C130.991 222.942 128.798 223.118 128.208 221.712L128.199 221.727Z" fill="#3F1D1E"/>
<path fill-rule="evenodd" clip-rule="evenodd" d="M126.15 214.694C123.91 211.98 128.571 210.284 130.697 211.386C127.127 203.329 134.138 202.634 139.18 207.237C137.557 201.641 133.697 197.094 130.929 192.069C127.338 185.713 124.091 179.054 122.405 171.938C114.923 141.377 148.039 109.31 118.97 82.332C115.299 79.6689 111.017 77.8446 106.656 76.8102C105.011 76.9051 104.252 74.5239 105.651 73.6599C110.187 72.8319 117.698 77.2519 121.435 79.9108C142.411 99.5635 133.405 122.882 126.825 146.452C123.561 158.085 123.846 170.493 129.33 181.431C132.963 191.008 140.983 198.605 143.009 208.758C143.349 216.539 136.243 208.592 133.128 207.754C133.023 210.473 137.669 214.346 134.324 216.3C132.205 216.853 130.665 214.376 128.543 214.572C127.956 215.298 126.811 215.326 126.132 214.726L126.15 214.694Z" fill="#3F1D1E"/>
<path fill-rule="evenodd" clip-rule="evenodd" d="M133.78 455.456C101.912 416.729 98.3907 356.698 103.874 308.719C106.607 288.005 112.869 267.991 119.656 248.301C122.274 239.888 127.265 231.823 127.28 222.847C125.291 219.045 133.32 216.661 130.059 229.34C123.701 248.505 116.089 267.343 111.459 287.066C101.596 331.326 102.323 379.673 118.472 422.362C121.42 429.684 124.81 436.823 129.054 443.494C131.086 446.86 133.326 450.118 136.106 452.913C137.749 454.343 135.413 457.047 133.78 455.456Z" fill="#3F1D1E"/>
<path fill-rule="evenodd" clip-rule="evenodd" d="M64.7409 486.547C56.4488 478.48 65.0577 468.533 73.3607 465.095C82.8424 462.985 92.8199 464.546 102.461 463.574C118.278 462.196 133.34 455.892 146.274 446.896C152.224 442.643 158.064 438.18 163.119 432.867C164.61 431.262 167.203 433.657 165.606 435.263C164.559 436.351 163.49 437.406 162.406 438.451C147.876 451.477 130.518 462.41 111.03 465.763C102.99 467.514 94.9077 467.235 86.7542 467.479C82.2716 467.67 77.4491 466.891 73.2899 468.878C68.0689 471.797 61.2005 478.403 67.1701 484.043C68.8153 485.578 66.3367 488.096 64.7747 486.525L64.7409 486.547Z" fill="#3F1D1E"/>
<path fill-rule="evenodd" clip-rule="evenodd" d="M81.3489 504.054C78.7526 502.138 75.4522 500.462 74.346 497.233C73.5296 490.494 81.1053 484.003 87.2831 482.869C89.8853 482.094 97.8657 484.216 95.6589 487.893C95.0026 488.559 93.8972 488.589 93.2145 487.923C89.0205 483.81 82.7873 487.649 79.8588 491.453C78.1596 493.417 76.3436 496.527 79.291 498.27C82.7715 501.011 86.5023 503.499 90.4484 505.506C109.841 512.899 131.557 509.601 151.366 505.765C159.396 503.778 168.002 502.897 175.425 499.097C175.26 495.868 189.83 498.389 193.307 494.504C186.837 490.999 193.486 489.05 197.183 488.009C203.38 485.863 209.061 482.728 214.77 479.652C217.082 478.981 222.895 472.644 223.575 477.59C222.422 480.059 216.181 482.535 213.665 484.174C207.931 487.257 202.074 490.227 195.804 492.101C201.295 500.056 183.075 500.777 178.489 500.929C172.437 506.085 159.986 506.96 152.205 509.132C129.597 513.358 101.365 518.159 81.3556 504.079L81.3489 504.054Z" fill="#3F1D1E"/>
<path fill-rule="evenodd" clip-rule="evenodd" d="M71.4088 493.406C63.3874 489.109 66.0023 481.572 70.8925 475.893C74.274 471.702 80.1779 470.536 85.2226 471.944C87.3817 472.48 86.5644 475.852 84.3986 475.292C83.0029 474.883 81.5475 474.795 80.1072 474.861C75.688 474.942 72.5761 478.557 70.7735 482.259C68.5661 486.082 69.8345 488.632 73.5199 490.655C74.8344 491.749 78.0657 492.131 76.9693 494.465C75.494 496.621 73.014 494.249 71.4088 493.406Z" fill="#3F1D1E"/>
<path fill-rule="evenodd" clip-rule="evenodd" d="M21.3946 436.576C17.2488 434.516 17.2934 429.946 19.484 426.405C21.5957 421.189 26.5768 416.983 32.4788 418.029C34.7199 418.279 34.3044 421.716 32.0881 421.46C29.3154 421.008 26.4538 422.051 24.7378 424.299C20.0151 431.392 20.0347 432.698 27.9419 436.323C38.5441 440.752 50.1959 442.131 61.6016 441.508C74.4345 441.312 86.977 438.358 98.7726 433.364C103.565 431.514 108.09 429.112 112.643 426.769C114.535 426.064 118.059 423.44 118.964 426.511C119.073 429.039 115.374 428.742 113.837 430.028C107.574 433.411 101.118 436.368 94.4205 438.728C72.5558 446.704 42.0218 448.861 21.3922 436.616L21.3946 436.576Z" fill="#3F1D1E"/>
<path fill-rule="evenodd" clip-rule="evenodd" d="M18.2643 433.264C4.24886 426.739 6.08276 411.46 21.9221 410.514C24.7853 410.809 23.7913 414.56 21.1067 413.991C8.84742 415.73 10.1359 425.855 20.1154 430.384C23.2118 431.942 20.4633 436.268 18.271 433.289L18.2643 433.264Z" fill="#3F1D1E"/>
<path fill-rule="evenodd" clip-rule="evenodd" d="M8.77237 423C2.69179 419.907 2.54163 411.108 8.07796 407.389C19.912 399.429 35.2705 400.838 48.7192 397.655C66.2623 393.577 82.1717 383.812 94.6042 370.975C97.0991 368.321 99.547 365.639 101.639 362.668C102.188 361.899 103.3 361.747 104.046 362.303C106.803 364.522 99.144 370.504 97.8195 372.581C85.8251 385.42 70.309 395.119 53.4365 400.065C45.2386 403.647 -1.5255 403.223 9.1068 419.014C13.4681 421.135 11.4211 424.717 8.76332 423.015L8.77237 423Z" fill="#3F1D1E"/>
<path fill-rule="evenodd" clip-rule="evenodd" d="M186.91 500.149C184.191 498.663 187.512 494.794 189.169 497.505C227.049 520.963 270.812 531.187 313.9 540.332C359.757 550.553 406.309 557.686 451.83 569.322C455.163 570.724 473.566 574.831 471.306 578.31C470.81 579.278 469.574 579.462 468.698 578.915C435.485 565.672 399.372 562.31 364.739 554.244C304.293 541.283 240.53 533.05 186.91 500.149Z" fill="#3F1D1E"/>
<path fill-rule="evenodd" clip-rule="evenodd" d="M651.467 654.602C652.999 652.311 657.472 656.377 661.688 656.032C677.577 656.159 678.146 648.361 667.927 637.906C661.663 631.072 655.034 624.508 649.532 617.007C640.96 607.106 637.623 594.441 631.651 583.116C628.038 577.96 622.949 574.165 618.779 569.501C609.582 558.508 606.905 543.758 603.918 530.125C599.141 503.759 598.243 475.746 584.015 452.196C567.718 422.626 537.985 415.968 507.038 411.556C476.388 407.064 445.552 403.802 415.035 398.426C389.733 393.659 364.489 388.465 339.58 382.002C310.947 375.248 282.077 363.761 261.606 341.893C260.199 339.764 257.503 338.166 256.932 335.747C257.246 333.755 259.855 333.946 260.687 335.512C267.15 343.777 275.407 350.383 284.192 356.04C303.566 369.336 326.446 375.254 348.93 380.881C394.582 392.217 441.007 399.715 487.654 405.379C515.925 409.751 547.429 411.205 570.437 430.129C610.229 465.492 597.312 516.638 616.5 559.933C620.733 569.125 630.322 574.076 635.42 582.639C640.868 594.329 644.908 606.753 653.595 616.637C660.246 626.932 677.186 638.029 678.367 649.826C677.701 659.386 664.75 660.475 657.363 658.884C655.474 658.316 650.245 657.553 651.467 654.602Z" fill="#3F1D1E"/>
<path fill-rule="evenodd" clip-rule="evenodd" d="M648.269 668.257C646.996 664.012 652.346 666.558 654.445 666.475C660.329 666.863 668.896 664.852 669.404 657.812C667.553 653.735 673.781 654.072 672.828 658.912C671.097 669.194 656.353 672.591 648.276 668.282L648.269 668.257Z" fill="#3F1D1E"/>
<path fill-rule="evenodd" clip-rule="evenodd" d="M489.22 593.375C474.288 584.524 463.136 571.337 452.596 557.814C451.277 556.112 453.885 553.878 455.311 555.684C462.153 563.98 468.605 572.698 476.665 579.9C489.188 590.097 503.089 598.813 518.022 605.052C531.676 610.574 546.147 614.208 560.529 617.163C570.012 618.856 579.911 619.829 588.2 625.22C604.872 635.514 617.435 651.041 633.583 662.098C639.248 666.852 645.189 670.512 652.501 671.725C663.364 673.819 663.541 663.62 666.857 664.762C670.32 667.242 663.932 672.329 661.749 673.68C648.863 679.695 635.958 668.275 626.297 660.838C616.918 653.856 608.489 645.772 599.835 637.934C580.019 619.786 567.202 623.397 543.576 616.777C524.272 612.129 505.596 604.689 489.213 593.35L489.22 593.375Z" fill="#3F1D1E"/>
<path fill-rule="evenodd" clip-rule="evenodd" d="M594.538 704.071C587.397 697.922 582.594 689.717 577.34 682.004C570.016 671.716 562.848 661.122 553.876 652.202C542.491 642.39 527.549 638.485 514.678 631.138C492.968 620.401 473.694 605.7 455.232 590.173C447.371 583.712 440.394 576.195 432.393 569.904C430.731 568.255 425.442 567.27 427.991 564.375C433.066 563.377 443.61 575.733 447.899 579.066C465.157 594.252 482.943 609.285 502.946 620.729C510.552 625.058 518.27 629.263 526.134 633.072C535.988 637.529 546.266 641.541 554.761 648.388C563.016 655.578 569.099 664.898 575.684 673.568C585.047 685.179 591.466 703.05 607.301 706.822C609.306 707.479 612.422 705.162 613.353 707.789C613.732 710.285 610.428 710.174 608.732 710.323C603.317 710.498 598.548 707.452 594.587 704.058L594.538 704.071Z" fill="#3F1D1E"/>
<path fill-rule="evenodd" clip-rule="evenodd" d="M613.837 693.653C612.005 692.26 605.888 688.687 608.129 686.074C608.805 685.482 609.982 685.473 610.555 686.221C621.191 698.128 636.87 696.191 623.375 678.727C613.97 664.688 604.852 650.441 596.969 635.506C596.224 633.425 599.493 632.22 600.226 634.357C603.827 640.259 606.822 646.522 610.423 652.424C617.119 663.582 625.033 674.043 631.493 685.356C634.925 698.473 622.544 699.661 613.853 693.662L613.837 693.653Z" fill="#3F1D1E"/>
<path fill-rule="evenodd" clip-rule="evenodd" d="M602.87 701.632C601.712 700.775 600.683 699.805 599.698 698.756C598.206 697.101 600.794 694.792 602.277 696.463C608.179 702.691 616.386 705.507 622.537 698.007C623.657 697.045 623.24 695.195 624.687 694.609C627.169 693.933 627.498 697.131 626.266 698.613C620.28 707.568 611.045 708.127 602.855 701.623L602.87 701.632Z" fill="#3F1D1E"/>
<path fill-rule="evenodd" clip-rule="evenodd" d="M610.654 707.609C610.487 705.905 612.485 705.888 613.251 704.742C614.69 703.045 617.346 705.331 615.859 707C614.703 708.568 611.294 710.632 610.654 707.609Z" fill="#3F1D1E"/>
<path fill-rule="evenodd" clip-rule="evenodd" d="M579.721 443.616C579.796 442.218 581.184 441.807 582.364 442.009C585.409 441.844 588.376 440.946 591.288 440.141C614.452 433.103 636.075 420.328 648.14 398.67C657.267 382.462 658.887 363.278 656.78 345.076C655.174 327.748 646.587 310.589 632.725 299.849C640.171 314.636 645.734 331.198 645.497 347.88C644.417 367.794 639.68 388.501 627.027 404.365C613.65 420.94 593.397 434.025 571.46 433.248C565.96 433.896 566.681 427.647 570.371 429.736C595.001 431.065 617.45 414.359 629.897 394.176C639.84 375.034 644.941 352.03 640.189 330.692C638.709 323.654 636.498 316.757 633.804 310.083C633.008 306.678 625.361 296.768 628.86 294.693C639.415 295.146 654.069 318.9 656.829 328.578C667.256 364.726 659.616 402.998 628.347 426.103C624.367 430.679 581.056 451.595 579.723 443.576L579.721 443.616Z" fill="#3F1D1E"/>
<path fill-rule="evenodd" clip-rule="evenodd" d="M264.923 302.085C265.394 301.27 266.457 300.986 267.273 301.457C268.089 301.928 268.375 302.992 267.904 303.806C267.434 304.621 266.37 304.906 265.554 304.434C264.739 303.963 264.453 302.9 264.923 302.085Z" fill="#3F1D1E"/>
<path d="M276.861 311.484C277.684 311.96 278.736 311.678 279.211 310.856C279.685 310.034 279.403 308.982 278.579 308.507C277.756 308.032 276.704 308.313 276.229 309.135C275.755 309.957 276.037 311.009 276.861 311.484Z" fill="#3F1D1E"/>
<path d="M262.662 317.995C263.486 318.47 264.538 318.189 265.012 317.367C265.487 316.545 265.204 315.493 264.381 315.018C263.558 314.543 262.506 314.824 262.031 315.646C261.557 316.468 261.839 317.52 262.662 317.995Z" fill="#3F1D1E"/>
<path fill-rule="evenodd" clip-rule="evenodd" d="M86.3438 184.065C76.6442 162.963 83.177 142.081 88.7045 120.912C89.6904 118.661 93.0174 120.435 91.7623 122.573C88.641 136.168 84.066 149.781 84.6786 163.903C85.0256 168.846 86.3876 173.916 88.0367 178.524C88.3389 180.537 91.0296 183.595 88.5754 185.019C87.7271 185.365 86.6391 184.967 86.3191 184.072L86.3438 184.065Z" fill="#3F1D1E"/>
<path fill-rule="evenodd" clip-rule="evenodd" d="M96.8367 202.2C95.0791 200.099 87.184 194.496 90.3216 191.815C92.4868 190.746 93.1761 193.756 94.4387 194.903C95.9597 196.616 97.5754 198.239 99.2858 199.769C100.882 201.318 98.3806 203.801 96.821 202.191L96.8367 202.2Z" fill="#3F1D1E"/>
<path fill-rule="evenodd" clip-rule="evenodd" d="M343.813 279.043C342.022 278.05 343.352 275.204 345.257 275.927C347.805 276.187 350.241 276.172 352.766 276.001C363.703 275.358 374.656 273.199 384.236 267.657C385.067 267.197 386.122 267.472 386.584 268.302C388.486 271.929 373.289 275.857 370.546 276.948C361.897 278.703 352.59 280.474 343.804 279.058L343.813 279.043Z" fill="#3F1D1E"/>
<path fill-rule="evenodd" clip-rule="evenodd" d="M393.669 263.786C394.027 261.861 398.217 261.669 399.798 260.054C401.637 259.298 403.328 255.824 405.433 257.541C407.402 260.328 401.964 262.39 400.215 263.825C398.418 264.835 393.895 267.489 393.669 263.786Z" fill="#3F1D1E"/>
<path fill-rule="evenodd" clip-rule="evenodd" d="M207.559 486.561C207.929 483.746 211.925 485.05 213.896 484.245C216.432 484.309 223.701 479.438 223.193 484.557C221.706 486.372 217.76 486.539 215.492 487.423C213.174 487.526 208.26 489.912 207.575 486.57L207.559 486.561Z" fill="#3F1D1E"/>
<path fill-rule="evenodd" clip-rule="evenodd" d="M131.666 519.233C131.131 515.811 151.759 516.209 155.028 515.693C157.574 516.139 165.73 513.933 166.036 517.244C166.046 518.169 165.259 518.989 164.327 518.973C155.588 518.962 147.151 519.335 138.631 520.287C136.481 520.132 132.197 522.443 131.675 519.217L131.666 519.233Z" fill="#3F1D1E"/>
<path fill-rule="evenodd" clip-rule="evenodd" d="M175.662 517.892C175.139 515.103 182.211 515.029 182.089 517.632C182.092 518.532 181.318 519.402 180.379 519.361C178.781 519.086 176.072 520.154 175.662 517.892Z" fill="#3F1D1E"/>
<path fill-rule="evenodd" clip-rule="evenodd" d="M444.613 548.087C443.075 546.258 439.976 544.051 440.989 541.356C441.459 540.541 442.523 540.257 443.339 540.728C443.904 541.054 444.209 541.648 444.189 542.263C444.932 543.549 446.013 544.612 447.053 545.672C448.631 547.251 446.132 549.695 444.589 548.093L444.613 548.087Z" fill="#3F1D1E"/>
<path fill-rule="evenodd" clip-rule="evenodd" d="M619.373 440.017C619.08 438.929 619.884 437.972 620.94 437.809C624.241 436.622 627.443 435.17 630.614 433.7C645.681 426.374 657.622 413.88 665.113 398.984C666.186 397.055 669.232 398.772 668.095 400.706C659.924 416.923 646.543 430.424 629.872 437.847C627.332 438.407 620.802 443.412 619.364 440.033L619.373 440.017Z" fill="#3F1D1E"/>
<path fill-rule="evenodd" clip-rule="evenodd" d="M668.404 416.657C666.471 414.497 672.21 410.644 673.064 408.296C678.473 400.847 681.153 392.074 682.051 382.982C682.172 382.048 683.048 381.364 683.982 381.485C687.78 381.756 682.666 397.063 681.825 399.607C680.488 402.575 671.973 419.679 668.419 416.666L668.404 416.657Z" fill="#3F1D1E"/>
<path fill-rule="evenodd" clip-rule="evenodd" d="M626.648 360.271C626.304 356.626 627.984 352.811 627.981 349.048C628.219 344.214 627.507 339.541 626.578 334.846C626.064 332.293 625.517 329.763 625.102 327.183C624.946 326.258 625.664 325.377 626.581 325.238C629.226 325.114 628.571 328.748 629.185 330.439C630.325 335.819 631.374 341.251 631.476 346.763C631.249 349.076 631.136 365.035 626.641 360.246L626.648 360.271Z" fill="#3F1D1E"/>
<path fill-rule="evenodd" clip-rule="evenodd" d="M491.725 631.613C489.668 629.778 476.43 623.681 478.531 621.238C479.869 619.211 481.979 621.39 483.364 622.252C489.401 626.218 495.564 629.965 501.791 633.601C506.498 636.319 511.3 638.945 516.365 640.971C518.366 642.252 526.913 643.175 522.84 646.569C511.668 644.36 501.606 637.255 491.741 631.622L491.725 631.613Z" fill="#3F1D1E"/>
<path fill-rule="evenodd" clip-rule="evenodd" d="M542.993 657.138C541.236 655.434 534.61 654.011 535.906 651.041C537.772 648.462 542.462 653.384 544.712 654.161C546.642 655.275 544.905 658.284 542.984 657.154L542.993 657.138Z" fill="#3F1D1E"/>
<path fill-rule="evenodd" clip-rule="evenodd" d="M236.784 401.625C234.189 399.96 224.611 392.925 229.095 389.978C231.57 389.568 231.545 393.126 233.203 394.313C237.128 398.313 242.207 401.183 247.506 402.948C248.4 403.213 248.987 404.116 248.736 405.057C247.287 408.691 239.103 402.755 236.778 401.601L236.784 401.625Z" fill="#3F1D1E"/>
<path fill-rule="evenodd" clip-rule="evenodd" d="M256.21 406.135C256.3 403.951 259.088 404.412 260.545 403.665C261.573 403.151 262.962 403.138 263.465 404.369C264.251 406.557 261.5 406.974 260.004 407.427C258.594 407.95 256.308 408.176 256.219 406.119L256.21 406.135Z" fill="#3F1D1E"/>
</g>
<defs>
<clipPath id="clip0_175_4">
<rect width="809" height="469" fill="white" transform="translate(120.5) rotate(30)"/>
</clipPath>
</defs>
</svg>
